%TF.GenerationSoftware,KiCad,Pcbnew,10.0.1*%
%TF.CreationDate,2026-05-05T20:46:01+02:00*%
%TF.ProjectId,KiBoxLite_H,4b69426f-784c-4697-9465-5f482e6b6963,M1*%
%TF.SameCoordinates,PX55f9470PYa244870*%
%TF.FileFunction,Paste,Top*%
%TF.FilePolarity,Positive*%
%FSLAX46Y46*%
G04 Gerber Fmt 4.6, Leading zero omitted, Abs format (unit mm)*
G04 Created by KiCad (PCBNEW 10.0.1) date 2026-05-05 20:46:01*
%MOMM*%
%LPD*%
G01*
G04 APERTURE LIST*
G04 Aperture macros list*
%AMRoundRect*
0 Rectangle with rounded corners*
0 $1 Rounding radius*
0 $2 $3 $4 $5 $6 $7 $8 $9 X,Y pos of 4 corners*
0 Add a 4 corners polygon primitive as box body*
4,1,4,$2,$3,$4,$5,$6,$7,$8,$9,$2,$3,0*
0 Add four circle primitives for the rounded corners*
1,1,$1+$1,$2,$3*
1,1,$1+$1,$4,$5*
1,1,$1+$1,$6,$7*
1,1,$1+$1,$8,$9*
0 Add four rect primitives between the rounded corners*
20,1,$1+$1,$2,$3,$4,$5,0*
20,1,$1+$1,$4,$5,$6,$7,0*
20,1,$1+$1,$6,$7,$8,$9,0*
20,1,$1+$1,$8,$9,$2,$3,0*%
G04 Aperture macros list end*
%ADD10R,1.400000X1.000000*%
%ADD11R,1.000000X1.400000*%
%ADD12R,0.550000X0.500000*%
%ADD13R,0.500000X0.550000*%
%ADD14R,0.800000X0.800000*%
%ADD15R,1.016000X1.016000*%
%ADD16R,1.754000X1.327000*%
%ADD17R,1.100000X2.000000*%
%ADD18R,3.600000X2.400000*%
%ADD19R,3.400000X2.800000*%
%ADD20R,2.000000X1.700000*%
%ADD21R,0.750000X0.230000*%
%ADD22R,1.400000X0.600000*%
%ADD23R,2.600000X3.500000*%
%ADD24R,1.901600X0.901600*%
%ADD25R,0.901600X1.901600*%
%ADD26R,0.900000X0.900000*%
%ADD27RoundRect,0.079500X-0.079500X-0.100500X0.079500X-0.100500X0.079500X0.100500X-0.079500X0.100500X0*%
%ADD28RoundRect,0.150000X-0.150000X0.587500X-0.150000X-0.587500X0.150000X-0.587500X0.150000X0.587500X0*%
%ADD29RoundRect,0.079500X0.079500X0.100500X-0.079500X0.100500X-0.079500X-0.100500X0.079500X-0.100500X0*%
%ADD30R,0.530000X1.450000*%
%ADD31RoundRect,0.106000X-0.159000X0.619000X-0.159000X-0.619000X0.159000X-0.619000X0.159000X0.619000X0*%
%ADD32RoundRect,0.079500X-0.100500X0.079500X-0.100500X-0.079500X0.100500X-0.079500X0.100500X0.079500X0*%
%ADD33RoundRect,0.150000X-0.150000X-0.425000X0.150000X-0.425000X0.150000X0.425000X-0.150000X0.425000X0*%
%ADD34RoundRect,0.075000X-0.075000X-0.500000X0.075000X-0.500000X0.075000X0.500000X-0.075000X0.500000X0*%
%ADD35O,1.100000X2.700000*%
%ADD36O,1.100000X1.900000*%
%ADD37O,1.100000X2.200000*%
G04 APERTURE END LIST*
D10*
%TO.C,D2*%
X3365000Y30765000D03*
X3365000Y28865000D03*
X5565000Y29815000D03*
%TD*%
D11*
%TO.C,FET2*%
X2499040Y20671000D03*
X4401500Y20671000D03*
X3446460Y22880800D03*
%TD*%
D12*
%TO.C,R48*%
X26436000Y66391000D03*
X26436000Y67407000D03*
%TD*%
%TO.C,R47*%
X25801000Y74773000D03*
X25801000Y75789000D03*
%TD*%
D13*
%TO.C,R39*%
X26563000Y61184000D03*
X25547000Y61184000D03*
%TD*%
%TO.C,R32*%
X1671000Y66137000D03*
X2687000Y66137000D03*
%TD*%
D12*
%TO.C,R31*%
X37850000Y27458000D03*
X37850000Y26442000D03*
%TD*%
D13*
%TO.C,R4*%
X1671000Y64400000D03*
X2687000Y64400000D03*
%TD*%
%TO.C,R8*%
X4842000Y12750000D03*
X5858000Y12750000D03*
%TD*%
D14*
%TO.C,CHRG1*%
X3962000Y13850000D03*
X2438000Y13850000D03*
%TD*%
D12*
%TO.C,R5*%
X4750000Y9808000D03*
X4750000Y8792000D03*
%TD*%
%TO.C,R13*%
X21483000Y19147000D03*
X21483000Y18131000D03*
%TD*%
D13*
%TO.C,R44*%
X25547000Y62962000D03*
X26563000Y62962000D03*
%TD*%
D12*
%TO.C,R25*%
X23388000Y22068000D03*
X23388000Y23084000D03*
%TD*%
D15*
%TO.C,C21*%
X24923400Y20798000D03*
X23145400Y20798000D03*
%TD*%
%TO.C,C22*%
X16139000Y17550000D03*
X14361000Y17550000D03*
%TD*%
D13*
%TO.C,R33*%
X13101000Y32101000D03*
X14117000Y32101000D03*
%TD*%
D10*
%TO.C,FET1*%
X9326560Y33304960D03*
X9326560Y31402500D03*
X11536360Y32357540D03*
%TD*%
D11*
%TO.C,D9*%
X6746000Y39975000D03*
X2946000Y39975000D03*
%TD*%
D15*
%TO.C,C12*%
X17038000Y32355000D03*
X15260000Y32355000D03*
%TD*%
D16*
%TO.C,RST1*%
X2171000Y68573000D03*
X2171000Y73353000D03*
%TD*%
D13*
%TO.C,C23*%
X9545000Y35657000D03*
X10561000Y35657000D03*
%TD*%
%TO.C,R34*%
X10561000Y36673000D03*
X9545000Y36673000D03*
%TD*%
%TO.C,R38*%
X9545000Y34641000D03*
X10561000Y34641000D03*
%TD*%
D17*
%TO.C,L2*%
X14433000Y19528000D03*
X15833000Y19528000D03*
%TD*%
D12*
%TO.C,R36*%
X35910645Y26442000D03*
X35910645Y27458000D03*
%TD*%
%TO.C,R49*%
X25547000Y67407000D03*
X25547000Y66391000D03*
%TD*%
D18*
%TO.C,D5*%
X22067200Y31818000D03*
X22067200Y25018000D03*
%TD*%
D13*
%TO.C,R24*%
X6878000Y31085000D03*
X5862000Y31085000D03*
%TD*%
D19*
%TO.C,L4*%
X16927000Y25878000D03*
X6227000Y25878000D03*
%TD*%
D12*
%TO.C,R29*%
X10053000Y19528000D03*
X10053000Y18512000D03*
%TD*%
D13*
%TO.C,R30*%
X11958000Y17242000D03*
X12974000Y17242000D03*
%TD*%
D15*
%TO.C,C6*%
X8656000Y19909000D03*
X8656000Y18131000D03*
%TD*%
D20*
%TO.C,D3*%
X6610000Y17720000D03*
X1610000Y17720000D03*
%TD*%
D21*
%TO.C,U7*%
X11310000Y19520000D03*
X11310000Y19020000D03*
X11310000Y18520000D03*
X12860000Y19520000D03*
X12860000Y19020000D03*
X12860000Y18520000D03*
%TD*%
D12*
%TO.C,R10*%
X20594000Y19147000D03*
X20594000Y18131000D03*
%TD*%
D13*
%TO.C,C11*%
X18142000Y19950000D03*
X19158000Y19950000D03*
%TD*%
D12*
%TO.C,R12*%
X22372000Y19147000D03*
X22372000Y18131000D03*
%TD*%
%TO.C,R11*%
X19578000Y19147000D03*
X19578000Y18131000D03*
%TD*%
D16*
%TO.C,BUT1*%
X25809000Y68573000D03*
X25809000Y73353000D03*
%TD*%
D15*
%TO.C,C24*%
X23311800Y34006000D03*
X25089800Y34006000D03*
%TD*%
D22*
%TO.C,U5*%
X17679000Y34260000D03*
X17679000Y35530000D03*
X17679000Y36800000D03*
X17679000Y38070000D03*
X12079000Y38070000D03*
X12079000Y36800000D03*
X12079000Y35530000D03*
X12079000Y34260000D03*
D23*
X14879000Y36165000D03*
%TD*%
D24*
%TO.C,U6*%
X5390000Y78842000D03*
X5390000Y77572000D03*
X5390000Y76302000D03*
X5390000Y75032000D03*
X5390000Y73762000D03*
X5390000Y72492000D03*
X5390000Y71222000D03*
X5390000Y69952000D03*
X5390000Y68682000D03*
X5390000Y67412000D03*
X5390000Y66142000D03*
X5390000Y64872000D03*
X5390000Y63602000D03*
X5390000Y62332000D03*
X5390000Y61062000D03*
X5390000Y59792000D03*
X5390000Y58522000D03*
X5390000Y57252000D03*
X5390000Y55982000D03*
D25*
X8275000Y61182000D03*
X9545000Y61182000D03*
X10815000Y61182000D03*
D26*
X11090000Y72442000D03*
X11090000Y71042000D03*
X11090000Y69642000D03*
D25*
X12085000Y61182000D03*
D26*
X12490000Y72442000D03*
X12490000Y69642000D03*
D25*
X13355000Y61182000D03*
D26*
X13890000Y72442000D03*
X13890000Y71042000D03*
X13890000Y69642000D03*
D25*
X14625000Y61182000D03*
X15895000Y61182000D03*
X17165000Y61182000D03*
X18435000Y61182000D03*
X19705000Y61182000D03*
D24*
X22590000Y78842000D03*
X22590000Y77572000D03*
X22590000Y76302000D03*
X22590000Y75032000D03*
X22590000Y73762000D03*
X22590000Y72492000D03*
X22590000Y71222000D03*
X22590000Y69952000D03*
X22590000Y68682000D03*
X22590000Y67412000D03*
X22590000Y66142000D03*
X22590000Y64872000D03*
X22590000Y63602000D03*
X22590000Y62332000D03*
X22590000Y61062000D03*
X22590000Y59792000D03*
X22590000Y58522000D03*
X22590000Y57252000D03*
X22590000Y55982000D03*
%TD*%
D13*
%TO.C,R51*%
X38600000Y44208664D03*
X39616000Y44208664D03*
%TD*%
D27*
%TO.C,D11*%
X33284797Y42500000D03*
X33974797Y42500000D03*
%TD*%
D28*
%TO.C,D4*%
X37800000Y23767500D03*
X35900000Y23767500D03*
X36850000Y21892500D03*
%TD*%
D13*
%TO.C,R23*%
X41308000Y40550000D03*
X40292000Y40550000D03*
%TD*%
D29*
%TO.C,D10*%
X39335500Y42500000D03*
X38645500Y42500000D03*
%TD*%
D14*
%TO.C,PWR2*%
X-762000Y13550000D03*
X762000Y13550000D03*
%TD*%
D13*
%TO.C,R27*%
X33309797Y40550000D03*
X32293797Y40550000D03*
%TD*%
D12*
%TO.C,R35*%
X35941027Y13458000D03*
X35941027Y12442000D03*
%TD*%
D30*
%TO.C,U10*%
X38355000Y38070000D03*
D31*
X37085000Y38070000D03*
X35815000Y38070000D03*
X34545000Y38070000D03*
X34545000Y32620000D03*
X35815000Y32620000D03*
X37085000Y32620000D03*
X38355000Y32620000D03*
%TD*%
D13*
%TO.C,C29*%
X11069000Y17242000D03*
X10053000Y17242000D03*
%TD*%
D32*
%TO.C,D12*%
X7800000Y6645000D03*
X7800000Y5955000D03*
%TD*%
D13*
%TO.C,R50*%
X33949797Y44208664D03*
X34965797Y44208664D03*
%TD*%
D12*
%TO.C,R62*%
X4950000Y6492000D03*
X4950000Y7508000D03*
%TD*%
D33*
%TO.C,J2*%
X125534Y3601494D03*
X1012914Y3623959D03*
D34*
X2150000Y3630000D03*
X3150000Y3630000D03*
X3650000Y3630000D03*
X4650000Y3630000D03*
D33*
X6600000Y3630000D03*
X5800000Y3630000D03*
D34*
X5150000Y3630000D03*
X4150000Y3630000D03*
X2650000Y3630000D03*
X1650000Y3630000D03*
D35*
X-920000Y3055000D03*
D36*
X-920000Y-1125000D03*
X7720000Y-1125000D03*
D37*
X7720000Y3055000D03*
%TD*%
M02*
