%TF.GenerationSoftware,KiCad,Pcbnew,10.0.1*%
%TF.CreationDate,2026-05-05T20:46:01+02:00*%
%TF.ProjectId,KiBoxLite_H,4b69426f-784c-4697-9465-5f482e6b6963,M1*%
%TF.SameCoordinates,PX55f9470PYa244870*%
%TF.FileFunction,Soldermask,Bot*%
%TF.FilePolarity,Negative*%
%FSLAX46Y46*%
G04 Gerber Fmt 4.6, Leading zero omitted, Abs format (unit mm)*
G04 Created by KiCad (PCBNEW 10.0.1) date 2026-05-05 20:46:01*
%MOMM*%
%LPD*%
G01*
G04 APERTURE LIST*
G04 Aperture macros list*
%AMRoundRect*
0 Rectangle with rounded corners*
0 $1 Rounding radius*
0 $2 $3 $4 $5 $6 $7 $8 $9 X,Y pos of 4 corners*
0 Add a 4 corners polygon primitive as box body*
4,1,4,$2,$3,$4,$5,$6,$7,$8,$9,$2,$3,0*
0 Add four circle primitives for the rounded corners*
1,1,$1+$1,$2,$3*
1,1,$1+$1,$4,$5*
1,1,$1+$1,$6,$7*
1,1,$1+$1,$8,$9*
0 Add four rect primitives between the rounded corners*
20,1,$1+$1,$2,$3,$4,$5,0*
20,1,$1+$1,$4,$5,$6,$7,0*
20,1,$1+$1,$6,$7,$8,$9,0*
20,1,$1+$1,$8,$9,$2,$3,0*%
G04 Aperture macros list end*
%ADD10C,0.801600*%
%ADD11C,1.625600*%
%ADD12RoundRect,0.050800X-0.762000X-0.762000X0.762000X-0.762000X0.762000X0.762000X-0.762000X0.762000X0*%
%ADD13RoundRect,0.050800X0.762000X-0.762000X0.762000X0.762000X-0.762000X0.762000X-0.762000X-0.762000X0*%
%ADD14C,1.901600*%
%ADD15C,1.601600*%
%ADD16C,2.301600*%
%ADD17RoundRect,0.050800X-0.700000X0.700000X-0.700000X-0.700000X0.700000X-0.700000X0.700000X0.700000X0*%
%ADD18C,1.501600*%
%ADD19RoundRect,0.262700X-0.788100X-1.588100X0.788100X-1.588100X0.788100X1.588100X-0.788100X1.588100X0*%
%ADD20O,2.101600X3.701600*%
%ADD21C,3.301600*%
%ADD22RoundRect,0.050800X-0.900000X-0.900000X0.900000X-0.900000X0.900000X0.900000X-0.900000X0.900000X0*%
%ADD23C,2.101600*%
%ADD24C,3.101600*%
%ADD25C,0.751600*%
%ADD26O,1.201600X2.801600*%
%ADD27O,1.201600X2.001600*%
%ADD28O,1.201600X2.301600*%
%ADD29RoundRect,0.050800X-0.889000X0.889000X-0.889000X-0.889000X0.889000X-0.889000X0.889000X0.889000X0*%
%ADD30C,1.879600*%
%ADD31RoundRect,0.050800X-0.275000X0.250000X-0.275000X-0.250000X0.275000X-0.250000X0.275000X0.250000X0*%
%ADD32RoundRect,0.050800X0.275000X-0.250000X0.275000X0.250000X-0.275000X0.250000X-0.275000X-0.250000X0*%
%ADD33RoundRect,0.050800X0.508000X-0.317500X0.508000X0.317500X-0.508000X0.317500X-0.508000X-0.317500X0*%
%ADD34RoundRect,0.050800X0.508000X-0.190500X0.508000X0.190500X-0.508000X0.190500X-0.508000X-0.190500X0*%
%ADD35RoundRect,0.050800X-0.250000X-0.500000X0.250000X-0.500000X0.250000X0.500000X-0.250000X0.500000X0*%
%ADD36RoundRect,0.050800X-0.750000X-0.600000X0.750000X-0.600000X0.750000X0.600000X-0.750000X0.600000X0*%
%ADD37RoundRect,0.050800X0.635000X-0.762000X0.635000X0.762000X-0.635000X0.762000X-0.635000X-0.762000X0*%
%ADD38RoundRect,0.050800X-0.317500X-0.508000X0.317500X-0.508000X0.317500X0.508000X-0.317500X0.508000X0*%
%ADD39RoundRect,0.050800X-0.190500X-0.508000X0.190500X-0.508000X0.190500X0.508000X-0.190500X0.508000X0*%
%ADD40RoundRect,0.050800X0.500000X-0.700000X0.500000X0.700000X-0.500000X0.700000X-0.500000X-0.700000X0*%
%ADD41RoundRect,0.050800X-0.508000X-0.508000X0.508000X-0.508000X0.508000X0.508000X-0.508000X0.508000X0*%
%ADD42RoundRect,0.050800X-0.250000X-0.275000X0.250000X-0.275000X0.250000X0.275000X-0.250000X0.275000X0*%
%ADD43RoundRect,0.050800X0.250000X0.275000X-0.250000X0.275000X-0.250000X-0.275000X0.250000X-0.275000X0*%
%ADD44RoundRect,0.050800X0.508000X0.508000X-0.508000X0.508000X-0.508000X-0.508000X0.508000X-0.508000X0*%
%ADD45RoundRect,0.050800X-0.762000X-0.635000X0.762000X-0.635000X0.762000X0.635000X-0.762000X0.635000X0*%
%ADD46RoundRect,0.050800X-0.800100X0.584200X-0.800100X-0.584200X0.800100X-0.584200X0.800100X0.584200X0*%
%ADD47RoundRect,0.050800X0.508000X0.889000X-0.508000X0.889000X-0.508000X-0.889000X0.508000X-0.889000X0*%
%ADD48RoundRect,0.050800X-0.850000X1.000000X-0.850000X-1.000000X0.850000X-1.000000X0.850000X1.000000X0*%
%ADD49RoundRect,0.050800X-0.500000X0.700000X-0.500000X-0.700000X0.500000X-0.700000X0.500000X0.700000X0*%
%ADD50RoundRect,0.050800X0.600000X0.275000X-0.600000X0.275000X-0.600000X-0.275000X0.600000X-0.275000X0*%
%ADD51RoundRect,0.050800X-0.400000X-0.125000X0.400000X-0.125000X0.400000X0.125000X-0.400000X0.125000X0*%
%ADD52RoundRect,0.050800X-0.125000X0.400000X-0.125000X-0.400000X0.125000X-0.400000X0.125000X0.400000X0*%
%ADD53RoundRect,0.050800X0.400000X0.125000X-0.400000X0.125000X-0.400000X-0.125000X0.400000X-0.125000X0*%
%ADD54RoundRect,0.050800X0.125000X-0.400000X0.125000X0.400000X-0.125000X0.400000X-0.125000X-0.400000X0*%
%ADD55RoundRect,0.050800X0.800000X-0.800000X0.800000X0.800000X-0.800000X0.800000X-0.800000X-0.800000X0*%
%ADD56RoundRect,0.050800X1.800000X-1.800000X1.800000X1.800000X-1.800000X1.800000X-1.800000X-1.800000X0*%
%ADD57RoundRect,0.050800X-0.371231X-0.017678X-0.017678X-0.371231X0.371231X0.017678X0.017678X0.371231X0*%
%ADD58RoundRect,0.050800X0.371231X0.017678X0.017678X0.371231X-0.371231X-0.017678X-0.017678X-0.371231X0*%
%ADD59RoundRect,0.050800X0.500000X0.700000X-0.500000X0.700000X-0.500000X-0.700000X0.500000X-0.700000X0*%
%ADD60RoundRect,0.050800X-0.500000X-0.700000X0.500000X-0.700000X0.500000X0.700000X-0.500000X0.700000X0*%
%ADD61RoundRect,0.050800X0.889000X-0.762000X0.889000X0.762000X-0.889000X0.762000X-0.889000X-0.762000X0*%
%ADD62RoundRect,0.050800X1.700000X-0.600000X1.700000X0.600000X-1.700000X0.600000X-1.700000X-0.600000X0*%
%ADD63RoundRect,0.050800X0.508000X-0.508000X0.508000X0.508000X-0.508000X0.508000X-0.508000X-0.508000X0*%
%ADD64RoundRect,0.050800X-0.600000X-0.275000X0.600000X-0.275000X0.600000X0.275000X-0.600000X0.275000X0*%
%ADD65RoundRect,0.475400X0.475400X1.875400X-0.475400X1.875400X-0.475400X-1.875400X0.475400X-1.875400X0*%
%ADD66RoundRect,0.050800X0.500000X-0.125000X0.500000X0.125000X-0.500000X0.125000X-0.500000X-0.125000X0*%
%ADD67RoundRect,0.050800X0.600000X1.700000X-0.600000X1.700000X-0.600000X-1.700000X0.600000X-1.700000X0*%
%ADD68C,3.000000*%
%ADD69RoundRect,0.125400X-0.125400X0.155400X-0.125400X-0.155400X0.125400X-0.155400X0.125400X0.155400X0*%
%ADD70RoundRect,0.050800X-0.300000X-0.700000X0.300000X-0.700000X0.300000X0.700000X-0.300000X0.700000X0*%
%ADD71RoundRect,0.050800X-1.750000X1.300000X-1.750000X-1.300000X1.750000X-1.300000X1.750000X1.300000X0*%
G04 APERTURE END LIST*
D10*
%TO.C,RST1*%
X1271000Y70963000D03*
X3071000Y70963000D03*
%TD*%
D11*
%TO.C,C27*%
X20741000Y37816000D03*
D12*
X23241000Y37816000D03*
%TD*%
D11*
%TO.C,C25*%
X5600000Y34350000D03*
D13*
X5600000Y36850000D03*
%TD*%
D10*
%TO.C,BUT1*%
X24909000Y70963000D03*
X26709000Y70963000D03*
%TD*%
D14*
%TO.C,U5*%
X14879000Y36165000D03*
%TD*%
D15*
%TO.C,U6*%
X12490000Y71042000D03*
%TD*%
D16*
%TO.C,MH1*%
X2000000Y52075000D03*
%TD*%
%TO.C,MH2*%
X37600000Y52015000D03*
%TD*%
%TO.C,MH3*%
X44800000Y11900000D03*
%TD*%
D17*
%TO.C,BAT1*%
X2185680Y10528700D03*
D18*
X2188220Y8499240D03*
%TD*%
D19*
%TO.C,J1*%
X32700000Y7250000D03*
D20*
X37700000Y7250000D03*
X42700000Y7250000D03*
%TD*%
D21*
%TO.C,J3*%
X12415000Y3735000D03*
X23845000Y3735000D03*
D22*
X12415000Y12625000D03*
D14*
X13685000Y10085000D03*
X14955000Y12625000D03*
X16225000Y10085000D03*
X17495000Y12625000D03*
X18765000Y10085000D03*
X20035000Y12625000D03*
X22575000Y12625000D03*
X23845000Y10085000D03*
D23*
X11495000Y-325000D03*
X14035000Y-325000D03*
X22215000Y-325000D03*
X24755000Y-325000D03*
D24*
X10375000Y6785000D03*
X25875000Y6785000D03*
%TD*%
D25*
%TO.C,J2*%
X510000Y2155000D03*
X6290000Y2155000D03*
D26*
X-920000Y3055000D03*
D27*
X-920000Y-1125000D03*
X7720000Y-1125000D03*
D28*
X7720000Y3055000D03*
%TD*%
D29*
%TO.C,EXT2*%
X45276686Y47254733D03*
D30*
X45426686Y44714733D03*
X45450000Y42174733D03*
X45450000Y39634733D03*
X45450000Y37094733D03*
X45450000Y34554733D03*
X45450000Y32014733D03*
X45450000Y29474733D03*
X45450000Y26934733D03*
X45450000Y24394733D03*
%TD*%
D31*
%TO.C,R1*%
X-400000Y47642000D03*
D32*
X-400000Y48658000D03*
%TD*%
D33*
%TO.C,RM1*%
X17038000Y27148000D03*
X18562000Y27148000D03*
D34*
X17038000Y28037000D03*
X18562000Y28037000D03*
X17038000Y28799000D03*
X18562000Y28799000D03*
D33*
X17038000Y29688000D03*
X18562000Y29688000D03*
%TD*%
D35*
%TO.C,MICRO_SD1*%
X17840000Y67913000D03*
X16740000Y67913000D03*
X15640000Y67913000D03*
X14890000Y67913000D03*
X13440000Y67913000D03*
X12340000Y67913000D03*
X11240000Y67913000D03*
X10140000Y67913000D03*
X14190000Y67913000D03*
D36*
X8690000Y66163000D03*
X8690000Y61713000D03*
X19290000Y66163000D03*
X19290000Y61713000D03*
%TD*%
D32*
%TO.C,R40*%
X21483000Y63470000D03*
D31*
X21483000Y62454000D03*
%TD*%
D37*
%TO.C,C3*%
X14866000Y59550000D03*
X12834000Y59550000D03*
%TD*%
D38*
%TO.C,RM2*%
X8262917Y59426471D03*
X8262917Y57902471D03*
D39*
X9151917Y59426471D03*
X9151917Y57902471D03*
X9913917Y59426471D03*
X9913917Y57902471D03*
D38*
X10802917Y59426471D03*
X10802917Y57902471D03*
%TD*%
D31*
%TO.C,R46*%
X2433000Y64867000D03*
D32*
X2433000Y65883000D03*
%TD*%
D29*
%TO.C,EXT1*%
X45425000Y76155000D03*
D30*
X45425000Y73615000D03*
X45425000Y71075000D03*
X45425000Y68535000D03*
X45425000Y65995000D03*
X45425000Y63455000D03*
X45425000Y60915000D03*
X45425000Y58375000D03*
X45425000Y55835000D03*
X45425000Y53295000D03*
%TD*%
D40*
%TO.C,FET3*%
X13250000Y30033440D03*
X15152460Y30033440D03*
X14197420Y27823640D03*
%TD*%
D41*
%TO.C,C9*%
X13561000Y26150000D03*
X15339000Y26150000D03*
%TD*%
D31*
%TO.C,C15*%
X23134000Y16988000D03*
D32*
X23134000Y18004000D03*
%TD*%
D42*
%TO.C,C16*%
X13482000Y19401000D03*
D43*
X12466000Y19401000D03*
%TD*%
D42*
%TO.C,C18*%
X16657000Y23211000D03*
D43*
X15641000Y23211000D03*
%TD*%
D44*
%TO.C,C17*%
X16883575Y24665601D03*
X15105575Y24665601D03*
%TD*%
D45*
%TO.C,L1*%
X13990000Y20671000D03*
X16022000Y20671000D03*
%TD*%
D41*
%TO.C,C1*%
X-439000Y13650000D03*
X1339000Y13650000D03*
%TD*%
D32*
%TO.C,R6*%
X9300000Y-192000D03*
D31*
X9300000Y-1208000D03*
%TD*%
D42*
%TO.C,R22*%
X6216000Y11316000D03*
D43*
X5200000Y11316000D03*
%TD*%
D42*
%TO.C,C19*%
X6216000Y12332000D03*
D43*
X5200000Y12332000D03*
%TD*%
D46*
%TO.C,BAT_SENS_E1*%
X6250000Y15212000D03*
X6250000Y13688000D03*
%TD*%
D47*
%TO.C,C2*%
X11228000Y10500000D03*
X7672000Y10500000D03*
%TD*%
D44*
%TO.C,C7*%
X8021000Y18131000D03*
X6243000Y18131000D03*
%TD*%
D48*
%TO.C,D8*%
X26650000Y16186000D03*
X26650000Y11186000D03*
%TD*%
D49*
%TO.C,Q2*%
X9730420Y43226200D03*
X7827960Y43226200D03*
X8783000Y45436000D03*
%TD*%
D48*
%TO.C,D1*%
X5100000Y43999000D03*
X5100000Y38999000D03*
%TD*%
D44*
%TO.C,C10*%
X15514000Y31974000D03*
X13736000Y31974000D03*
%TD*%
D43*
%TO.C,R21*%
X8402000Y41880000D03*
D42*
X9418000Y41880000D03*
%TD*%
D49*
%TO.C,Q3*%
X13034960Y40391560D03*
X11132500Y40391560D03*
X12087540Y42601360D03*
%TD*%
D32*
%TO.C,C8*%
X10815000Y20417000D03*
D31*
X10815000Y19401000D03*
%TD*%
D43*
%TO.C,R16*%
X3449000Y31720000D03*
D42*
X4465000Y31720000D03*
%TD*%
%TO.C,R18*%
X8529000Y24481000D03*
D43*
X7513000Y24481000D03*
%TD*%
D42*
%TO.C,R19*%
X4465000Y30577000D03*
D43*
X3449000Y30577000D03*
%TD*%
D31*
%TO.C,C14*%
X20848000Y25370000D03*
D32*
X20848000Y26386000D03*
%TD*%
%TO.C,R41*%
X21737000Y26386000D03*
D31*
X21737000Y25370000D03*
%TD*%
D42*
%TO.C,TVS2*%
X22245000Y16353000D03*
D43*
X21229000Y16353000D03*
%TD*%
%TO.C,TVS3*%
X19324000Y16353000D03*
D42*
X20340000Y16353000D03*
%TD*%
D50*
%TO.C,TVS1*%
X14976000Y15591000D03*
X14976000Y16541000D03*
X14976000Y17491000D03*
X17576000Y17491000D03*
X17576000Y15591000D03*
%TD*%
D51*
%TO.C,U4*%
X18144000Y19556000D03*
X18144000Y20056000D03*
X18144000Y20556000D03*
X18144000Y21056000D03*
X18144000Y21556000D03*
X18144000Y22056000D03*
X18144000Y22556000D03*
X18144000Y23056000D03*
D52*
X18844000Y23756000D03*
X19344000Y23756000D03*
X19844000Y23756000D03*
X20344000Y23756000D03*
X20844000Y23756000D03*
X21344000Y23756000D03*
X21844000Y23756000D03*
X22344000Y23756000D03*
D53*
X23044000Y23056000D03*
X23044000Y22556000D03*
X23044000Y22056000D03*
X23044000Y21556000D03*
X23044000Y21056000D03*
X23044000Y20556000D03*
X23044000Y20056000D03*
X23044000Y19556000D03*
D54*
X22344000Y18856000D03*
X21844000Y18856000D03*
X21344000Y18856000D03*
X20844000Y18856000D03*
X20344000Y18856000D03*
X19844000Y18856000D03*
X19344000Y18856000D03*
X18844000Y18856000D03*
D10*
X20094000Y20006000D03*
X21094000Y20006000D03*
X19294000Y20806000D03*
X21894000Y20806000D03*
D55*
X20594000Y21306000D03*
D56*
X20594000Y21306000D03*
D10*
X19294000Y21806000D03*
X21894000Y21806000D03*
X20094000Y22606000D03*
X21094000Y22606000D03*
%TD*%
D57*
%TO.C,R26*%
X17049210Y18590790D03*
D58*
X16330790Y19309210D03*
%TD*%
D44*
%TO.C,C13*%
X12720000Y18150000D03*
X10942000Y18150000D03*
%TD*%
D59*
%TO.C,D6*%
X7508000Y28672000D03*
X3708000Y28672000D03*
%TD*%
D60*
%TO.C,D7*%
X3708000Y26259000D03*
X7508000Y26259000D03*
%TD*%
D61*
%TO.C,R28*%
X20975000Y33498000D03*
X20975000Y36292000D03*
%TD*%
D32*
%TO.C,R20*%
X10942000Y43912000D03*
D31*
X10942000Y42896000D03*
%TD*%
D42*
%TO.C,R9*%
X3957000Y74138000D03*
D43*
X2941000Y74138000D03*
%TD*%
D38*
%TO.C,RM3*%
X16947170Y59318395D03*
X16947170Y57794395D03*
D39*
X17836170Y59318395D03*
X17836170Y57794395D03*
X18598170Y59318395D03*
X18598170Y57794395D03*
D38*
X19487170Y59318395D03*
X19487170Y57794395D03*
%TD*%
D62*
%TO.C,R42*%
X22025000Y39800000D03*
X22025000Y46100000D03*
%TD*%
D41*
%TO.C,C26*%
X22372000Y31466000D03*
X24150000Y31466000D03*
%TD*%
D63*
%TO.C,R43*%
X23007000Y32863000D03*
X23007000Y34641000D03*
%TD*%
D43*
%TO.C,C28*%
X24658000Y61311000D03*
D42*
X25674000Y61311000D03*
%TD*%
D32*
%TO.C,R45*%
X5989000Y68677000D03*
D31*
X5989000Y67661000D03*
%TD*%
D50*
%TO.C,U8*%
X23230999Y63028000D03*
X23230999Y63978000D03*
X23230999Y64928000D03*
X25830999Y64928000D03*
X25830999Y63028000D03*
%TD*%
D64*
%TO.C,U3*%
X4750000Y1100000D03*
X4750000Y150000D03*
X4750000Y-800000D03*
X2150000Y-800000D03*
X2150000Y1100000D03*
%TD*%
D43*
%TO.C,R17*%
X5200000Y10300000D03*
D42*
X6216000Y10300000D03*
%TD*%
D40*
%TO.C,T1*%
X4397540Y60175000D03*
X6300000Y60175000D03*
X5344960Y57965200D03*
%TD*%
D43*
%TO.C,R2*%
X7640000Y47468000D03*
D42*
X8656000Y47468000D03*
%TD*%
%TO.C,R3*%
X8656000Y48357000D03*
D43*
X7640000Y48357000D03*
%TD*%
D44*
%TO.C,C20*%
X4338000Y75408000D03*
X2560000Y75408000D03*
%TD*%
D45*
%TO.C,L5*%
X12974000Y57150000D03*
X15006000Y57150000D03*
%TD*%
D65*
%TO.C,F2*%
X39850000Y24750000D03*
X31950000Y24750000D03*
%TD*%
D43*
%TO.C,R52*%
X16784000Y56231000D03*
D42*
X17800000Y56231000D03*
%TD*%
D65*
%TO.C,F1*%
X39875523Y13672579D03*
X31975523Y13672579D03*
%TD*%
D37*
%TO.C,L7*%
X6300000Y6434000D03*
X6300000Y8466000D03*
%TD*%
D45*
%TO.C,R54*%
X23896000Y57628000D03*
X23896000Y59660000D03*
%TD*%
D42*
%TO.C,R56*%
X28954996Y199746D03*
D43*
X27938996Y199746D03*
%TD*%
D66*
%TO.C,U1*%
X4351000Y19925000D03*
X4351000Y20425000D03*
X4351000Y20925000D03*
X4351000Y21425000D03*
X4351000Y21925000D03*
X9151000Y21925000D03*
X9151000Y21425000D03*
X9151000Y20925000D03*
X9151000Y20425000D03*
X9151000Y19925000D03*
%TD*%
D67*
%TO.C,R7*%
X21250000Y7000000D03*
X14950000Y7000000D03*
%TD*%
D32*
%TO.C,R57*%
X20000000Y2008000D03*
D31*
X20000000Y992000D03*
%TD*%
%TO.C,R55*%
X10815000Y22195000D03*
D32*
X10815000Y23211000D03*
%TD*%
D46*
%TO.C,Class4_EN1*%
X21483000Y59279000D03*
X21483000Y57755000D03*
%TD*%
D31*
%TO.C,R58*%
X15350000Y3042000D03*
D32*
X15350000Y4058000D03*
%TD*%
D42*
%TO.C,R63*%
X28998000Y-1750000D03*
D43*
X27982000Y-1750000D03*
%TD*%
%TO.C,R53*%
X20848000Y55977000D03*
D42*
X21864000Y55977000D03*
%TD*%
D68*
%TO.C,FID6*%
X44500000Y17400000D03*
%TD*%
D69*
%TO.C,D13*%
X9850000Y2315000D03*
X9850000Y1675000D03*
%TD*%
D68*
%TO.C,FID5*%
X45400000Y80165000D03*
%TD*%
%TO.C,FID2*%
X250000Y80195000D03*
%TD*%
D70*
%TO.C,U9*%
X15895000Y54713000D03*
X17165000Y54713000D03*
X18435000Y54713000D03*
X19705000Y54713000D03*
X19705000Y49113000D03*
X18435000Y49113000D03*
X17165000Y49113000D03*
X15895000Y49113000D03*
D14*
X17800000Y51913000D03*
D71*
X17800000Y51913000D03*
%TD*%
D42*
%TO.C,R37*%
X28968000Y-800000D03*
D43*
X27952000Y-800000D03*
%TD*%
G36*
X24854121Y78181998D02*
G01*
X24900614Y78128342D01*
X24912000Y78076000D01*
X24912000Y73311500D01*
X24891998Y73243379D01*
X24838342Y73196886D01*
X24786000Y73185500D01*
X23768000Y73185500D01*
X23699879Y73205502D01*
X23653386Y73259158D01*
X23642000Y73311500D01*
X23642000Y78076000D01*
X23662002Y78144121D01*
X23715658Y78190614D01*
X23768000Y78202000D01*
X24786000Y78202000D01*
X24854121Y78181998D01*
G37*
M02*
