%TF.GenerationSoftware,KiCad,Pcbnew,10.0.1*%
%TF.CreationDate,2026-05-05T20:46:01+02:00*%
%TF.ProjectId,KiBoxLite_H,4b69426f-784c-4697-9465-5f482e6b6963,M1*%
%TF.SameCoordinates,PX55f9470PYa244870*%
%TF.FileFunction,Soldermask,Top*%
%TF.FilePolarity,Negative*%
%FSLAX46Y46*%
G04 Gerber Fmt 4.6, Leading zero omitted, Abs format (unit mm)*
G04 Created by KiCad (PCBNEW 10.0.1) date 2026-05-05 20:46:01*
%MOMM*%
%LPD*%
G01*
G04 APERTURE LIST*
G04 Aperture macros list*
%AMRoundRect*
0 Rectangle with rounded corners*
0 $1 Rounding radius*
0 $2 $3 $4 $5 $6 $7 $8 $9 X,Y pos of 4 corners*
0 Add a 4 corners polygon primitive as box body*
4,1,4,$2,$3,$4,$5,$6,$7,$8,$9,$2,$3,0*
0 Add four circle primitives for the rounded corners*
1,1,$1+$1,$2,$3*
1,1,$1+$1,$4,$5*
1,1,$1+$1,$6,$7*
1,1,$1+$1,$8,$9*
0 Add four rect primitives between the rounded corners*
20,1,$1+$1,$2,$3,$4,$5,0*
20,1,$1+$1,$4,$5,$6,$7,0*
20,1,$1+$1,$6,$7,$8,$9,0*
20,1,$1+$1,$8,$9,$2,$3,0*%
G04 Aperture macros list end*
%ADD10RoundRect,0.050800X-0.700000X0.500000X-0.700000X-0.500000X0.700000X-0.500000X0.700000X0.500000X0*%
%ADD11RoundRect,0.050800X-0.500000X0.700000X-0.500000X-0.700000X0.500000X-0.700000X0.500000X0.700000X0*%
%ADD12RoundRect,0.050800X-0.275000X0.250000X-0.275000X-0.250000X0.275000X-0.250000X0.275000X0.250000X0*%
%ADD13RoundRect,0.050800X0.275000X-0.250000X0.275000X0.250000X-0.275000X0.250000X-0.275000X-0.250000X0*%
%ADD14RoundRect,0.050800X-0.250000X-0.275000X0.250000X-0.275000X0.250000X0.275000X-0.250000X0.275000X0*%
%ADD15RoundRect,0.050800X0.250000X0.275000X-0.250000X0.275000X-0.250000X-0.275000X0.250000X-0.275000X0*%
%ADD16RoundRect,0.050800X-0.400000X-0.400000X0.400000X-0.400000X0.400000X0.400000X-0.400000X0.400000X0*%
%ADD17RoundRect,0.050800X0.508000X0.508000X-0.508000X0.508000X-0.508000X-0.508000X0.508000X-0.508000X0*%
%ADD18RoundRect,0.050800X0.700000X0.500000X-0.700000X0.500000X-0.700000X-0.500000X0.700000X-0.500000X0*%
%ADD19RoundRect,0.050800X0.500000X0.700000X-0.500000X0.700000X-0.500000X-0.700000X0.500000X-0.700000X0*%
%ADD20C,0.801600*%
%ADD21RoundRect,0.050800X0.750000X-0.450000X0.750000X0.450000X-0.750000X0.450000X-0.750000X-0.450000X0*%
%ADD22RoundRect,0.050800X-0.450000X-0.900000X0.450000X-0.900000X0.450000X0.900000X-0.450000X0.900000X0*%
%ADD23C,1.625600*%
%ADD24RoundRect,0.050800X-0.762000X-0.762000X0.762000X-0.762000X0.762000X0.762000X-0.762000X0.762000X0*%
%ADD25RoundRect,0.050800X-1.700000X1.100000X-1.700000X-1.100000X1.700000X-1.100000X1.700000X1.100000X0*%
%ADD26RoundRect,0.050800X0.762000X-0.762000X0.762000X0.762000X-0.762000X0.762000X-0.762000X-0.762000X0*%
%ADD27RoundRect,0.050800X1.500000X1.250000X-1.500000X1.250000X-1.500000X-1.250000X1.500000X-1.250000X0*%
%ADD28RoundRect,0.050800X-0.508000X0.508000X-0.508000X-0.508000X0.508000X-0.508000X0.508000X0.508000X0*%
%ADD29RoundRect,0.050800X1.000000X0.850000X-1.000000X0.850000X-1.000000X-0.850000X1.000000X-0.850000X0*%
%ADD30RoundRect,0.050800X0.350000X0.125000X-0.350000X0.125000X-0.350000X-0.125000X0.350000X-0.125000X0*%
%ADD31RoundRect,0.050800X-0.508000X-0.508000X0.508000X-0.508000X0.508000X0.508000X-0.508000X0.508000X0*%
%ADD32RoundRect,0.050800X0.700000X-0.300000X0.700000X0.300000X-0.700000X0.300000X-0.700000X-0.300000X0*%
%ADD33C,1.901600*%
%ADD34RoundRect,0.050800X1.300000X1.750000X-1.300000X1.750000X-1.300000X-1.750000X1.300000X-1.750000X0*%
%ADD35RoundRect,0.050800X-0.900000X-0.400000X0.900000X-0.400000X0.900000X0.400000X-0.900000X0.400000X0*%
%ADD36RoundRect,0.050800X-0.400000X-0.900000X0.400000X-0.900000X0.400000X0.900000X-0.400000X0.900000X0*%
%ADD37C,1.601600*%
%ADD38RoundRect,0.050800X-1.950000X-1.950000X1.950000X-1.950000X1.950000X1.950000X-1.950000X1.950000X0*%
%ADD39C,2.301600*%
%ADD40RoundRect,0.050800X-0.700000X0.700000X-0.700000X-0.700000X0.700000X-0.700000X0.700000X0.700000X0*%
%ADD41C,1.501600*%
%ADD42RoundRect,0.262700X-0.788100X-1.588100X0.788100X-1.588100X0.788100X1.588100X-0.788100X1.588100X0*%
%ADD43O,2.101600X3.701600*%
%ADD44RoundRect,0.050800X-0.500000X-0.500000X0.500000X-0.500000X0.500000X0.500000X-0.500000X0.500000X0*%
%ADD45RoundRect,0.125400X-0.155400X-0.125400X0.155400X-0.125400X0.155400X0.125400X-0.155400X0.125400X0*%
%ADD46RoundRect,0.175400X-0.175400X0.612900X-0.175400X-0.612900X0.175400X-0.612900X0.175400X0.612900X0*%
%ADD47RoundRect,0.125400X0.155400X0.125400X-0.155400X0.125400X-0.155400X-0.125400X0.155400X-0.125400X0*%
%ADD48RoundRect,0.050800X0.400000X0.400000X-0.400000X0.400000X-0.400000X-0.400000X0.400000X-0.400000X0*%
%ADD49RoundRect,0.050800X-0.265000X0.725000X-0.265000X-0.725000X0.265000X-0.725000X0.265000X0.725000X0*%
%ADD50RoundRect,0.126320X-0.189480X0.649480X-0.189480X-0.649480X0.189480X-0.649480X0.189480X0.649480X0*%
%ADD51C,3.000000*%
%ADD52RoundRect,0.125400X-0.125400X0.155400X-0.125400X-0.155400X0.125400X-0.155400X0.125400X0.155400X0*%
%ADD53C,3.301600*%
%ADD54RoundRect,0.050800X-0.900000X-0.900000X0.900000X-0.900000X0.900000X0.900000X-0.900000X0.900000X0*%
%ADD55C,2.101600*%
%ADD56C,3.101600*%
%ADD57C,0.751600*%
%ADD58RoundRect,0.175400X-0.175400X-0.450400X0.175400X-0.450400X0.175400X0.450400X-0.175400X0.450400X0*%
%ADD59RoundRect,0.100400X-0.100400X-0.525400X0.100400X-0.525400X0.100400X0.525400X-0.100400X0.525400X0*%
%ADD60O,1.201600X2.801600*%
%ADD61O,1.201600X2.001600*%
%ADD62O,1.201600X2.301600*%
%ADD63RoundRect,0.050800X-0.500000X-0.750000X0.500000X-0.750000X0.500000X0.750000X-0.500000X0.750000X0*%
%ADD64RoundRect,0.050800X-0.889000X0.889000X-0.889000X-0.889000X0.889000X-0.889000X0.889000X0.889000X0*%
%ADD65C,1.879600*%
%ADD66RoundRect,0.050800X0.800000X-0.800000X0.800000X0.800000X-0.800000X0.800000X-0.800000X-0.800000X0*%
G04 APERTURE END LIST*
D10*
%TO.C,D2*%
X3365000Y30765000D03*
X3365000Y28865000D03*
X5565000Y29815000D03*
%TD*%
D11*
%TO.C,FET2*%
X2499040Y20671000D03*
X4401500Y20671000D03*
X3446460Y22880800D03*
%TD*%
D12*
%TO.C,R48*%
X26436000Y66391000D03*
D13*
X26436000Y67407000D03*
%TD*%
D12*
%TO.C,R47*%
X25801000Y74773000D03*
D13*
X25801000Y75789000D03*
%TD*%
D14*
%TO.C,R39*%
X26563000Y61184000D03*
D15*
X25547000Y61184000D03*
%TD*%
%TO.C,R32*%
X1671000Y66137000D03*
D14*
X2687000Y66137000D03*
%TD*%
D13*
%TO.C,R31*%
X37850000Y27458000D03*
D12*
X37850000Y26442000D03*
%TD*%
D15*
%TO.C,R4*%
X1671000Y64400000D03*
D14*
X2687000Y64400000D03*
%TD*%
D15*
%TO.C,R8*%
X4842000Y12750000D03*
D14*
X5858000Y12750000D03*
%TD*%
D16*
%TO.C,CHRG1*%
X3962000Y13850000D03*
X2438000Y13850000D03*
%TD*%
D13*
%TO.C,R5*%
X4750000Y9808000D03*
D12*
X4750000Y8792000D03*
%TD*%
D13*
%TO.C,R13*%
X21483000Y19147000D03*
D12*
X21483000Y18131000D03*
%TD*%
D15*
%TO.C,R44*%
X25547000Y62962000D03*
D14*
X26563000Y62962000D03*
%TD*%
D12*
%TO.C,R25*%
X23388000Y22068000D03*
D13*
X23388000Y23084000D03*
%TD*%
D17*
%TO.C,C21*%
X24923400Y20798000D03*
X23145400Y20798000D03*
%TD*%
%TO.C,C22*%
X16139000Y17550000D03*
X14361000Y17550000D03*
%TD*%
D15*
%TO.C,R33*%
X13101000Y32101000D03*
D14*
X14117000Y32101000D03*
%TD*%
D18*
%TO.C,FET1*%
X9326560Y33304960D03*
X9326560Y31402500D03*
X11536360Y32357540D03*
%TD*%
D19*
%TO.C,D9*%
X6746000Y39975000D03*
X2946000Y39975000D03*
%TD*%
D17*
%TO.C,C12*%
X17038000Y32355000D03*
X15260000Y32355000D03*
%TD*%
D20*
%TO.C,RST1*%
X1271000Y70963000D03*
X3071000Y70963000D03*
D21*
X2171000Y68786000D03*
X2171000Y73140000D03*
%TD*%
D15*
%TO.C,C23*%
X9545000Y35657000D03*
D14*
X10561000Y35657000D03*
%TD*%
%TO.C,R34*%
X10561000Y36673000D03*
D15*
X9545000Y36673000D03*
%TD*%
%TO.C,R38*%
X9545000Y34641000D03*
D14*
X10561000Y34641000D03*
%TD*%
D22*
%TO.C,L2*%
X14433000Y19528000D03*
X15833000Y19528000D03*
%TD*%
D12*
%TO.C,R36*%
X35910645Y26442000D03*
D13*
X35910645Y27458000D03*
%TD*%
%TO.C,R49*%
X25547000Y67407000D03*
D12*
X25547000Y66391000D03*
%TD*%
D23*
%TO.C,C27*%
X20741000Y37816000D03*
D24*
X23241000Y37816000D03*
%TD*%
D25*
%TO.C,D5*%
X22067200Y31818000D03*
X22067200Y25018000D03*
%TD*%
D23*
%TO.C,C25*%
X5600000Y34350000D03*
D26*
X5600000Y36850000D03*
%TD*%
D14*
%TO.C,R24*%
X6878000Y31085000D03*
D15*
X5862000Y31085000D03*
%TD*%
D27*
%TO.C,L4*%
X16927000Y25878000D03*
X6227000Y25878000D03*
%TD*%
D13*
%TO.C,R29*%
X10053000Y19528000D03*
D12*
X10053000Y18512000D03*
%TD*%
D15*
%TO.C,R30*%
X11958000Y17242000D03*
D14*
X12974000Y17242000D03*
%TD*%
D28*
%TO.C,C6*%
X8656000Y19909000D03*
X8656000Y18131000D03*
%TD*%
D29*
%TO.C,D3*%
X6610000Y17720000D03*
X1610000Y17720000D03*
%TD*%
D30*
%TO.C,U7*%
X12835000Y18520000D03*
X12835000Y19020000D03*
X12835000Y19520000D03*
X11335000Y19520000D03*
X11335000Y19020000D03*
X11335000Y18520000D03*
%TD*%
D13*
%TO.C,R10*%
X20594000Y19147000D03*
D12*
X20594000Y18131000D03*
%TD*%
D15*
%TO.C,C11*%
X18142000Y19950000D03*
D14*
X19158000Y19950000D03*
%TD*%
D13*
%TO.C,R12*%
X22372000Y19147000D03*
D12*
X22372000Y18131000D03*
%TD*%
D13*
%TO.C,R11*%
X19578000Y19147000D03*
D12*
X19578000Y18131000D03*
%TD*%
D20*
%TO.C,BUT1*%
X24909000Y70963000D03*
X26709000Y70963000D03*
D21*
X25809000Y68786000D03*
X25809000Y73140000D03*
%TD*%
D31*
%TO.C,C24*%
X23311800Y34006000D03*
X25089800Y34006000D03*
%TD*%
D32*
%TO.C,U5*%
X17679000Y34260000D03*
X17679000Y35530000D03*
X17679000Y36800000D03*
X17679000Y38070000D03*
X12079000Y38070000D03*
X12079000Y36800000D03*
X12079000Y35530000D03*
X12079000Y34260000D03*
D33*
X14879000Y36165000D03*
D34*
X14879000Y36165000D03*
%TD*%
D35*
%TO.C,U6*%
X5390000Y78842000D03*
X5390000Y77572000D03*
X5390000Y76302000D03*
X5390000Y75032000D03*
X5390000Y73762000D03*
X5390000Y72492000D03*
X5390000Y71222000D03*
X5390000Y69952000D03*
X5390000Y68682000D03*
X5390000Y67412000D03*
X5390000Y66142000D03*
X5390000Y64872000D03*
X5390000Y63602000D03*
X5390000Y62332000D03*
X5390000Y61062000D03*
D36*
X8275000Y61182000D03*
D35*
X5390000Y59792000D03*
D36*
X9545000Y61182000D03*
D35*
X5390000Y58522000D03*
D36*
X10815000Y61182000D03*
D35*
X5390000Y57252000D03*
D36*
X12085000Y61182000D03*
D35*
X5390000Y55982000D03*
D36*
X13355000Y61182000D03*
X14625000Y61182000D03*
D35*
X22590000Y55982000D03*
D36*
X15895000Y61182000D03*
D35*
X22590000Y57252000D03*
D36*
X17165000Y61182000D03*
D35*
X22590000Y58522000D03*
D36*
X18435000Y61182000D03*
D35*
X22590000Y59792000D03*
D36*
X19705000Y61182000D03*
D35*
X22590000Y61062000D03*
X22590000Y62332000D03*
X22590000Y63602000D03*
X22590000Y64872000D03*
X22590000Y66142000D03*
X22590000Y67412000D03*
X22590000Y68682000D03*
X22590000Y69952000D03*
X22590000Y71222000D03*
X22590000Y72492000D03*
X22590000Y73762000D03*
X22590000Y75032000D03*
X22590000Y76302000D03*
X22590000Y77572000D03*
X22590000Y78842000D03*
D37*
X12490000Y71042000D03*
D38*
X12490000Y71042000D03*
%TD*%
D39*
%TO.C,MH1*%
X2000000Y52075000D03*
%TD*%
%TO.C,MH2*%
X37600000Y52015000D03*
%TD*%
%TO.C,MH3*%
X44800000Y11900000D03*
%TD*%
D40*
%TO.C,BAT1*%
X2185680Y10528700D03*
D41*
X2188220Y8499240D03*
%TD*%
D15*
%TO.C,R51*%
X38600000Y44208664D03*
D14*
X39616000Y44208664D03*
%TD*%
D42*
%TO.C,J1*%
X32700000Y7250000D03*
D43*
X37700000Y7250000D03*
X42700000Y7250000D03*
%TD*%
D44*
%TO.C,485B1*%
X41300000Y17750000D03*
%TD*%
D45*
%TO.C,D11*%
X33309797Y42500000D03*
X33949797Y42500000D03*
%TD*%
D44*
%TO.C,GND1*%
X34250000Y58750000D03*
%TD*%
%TO.C,485A1*%
X30850000Y17750000D03*
%TD*%
%TO.C,EN1*%
X-200000Y44800000D03*
%TD*%
D46*
%TO.C,D4*%
X37800000Y23767500D03*
X35900000Y23767500D03*
X36850000Y21892500D03*
%TD*%
D14*
%TO.C,R23*%
X41308000Y40550000D03*
D15*
X40292000Y40550000D03*
%TD*%
D44*
%TO.C,PoE1*%
X30850000Y33000000D03*
%TD*%
D47*
%TO.C,D10*%
X39310500Y42500000D03*
X38670500Y42500000D03*
%TD*%
D48*
%TO.C,PWR2*%
X-762000Y13550000D03*
X762000Y13550000D03*
%TD*%
D44*
%TO.C,VBAT1*%
X-150000Y34550000D03*
%TD*%
D14*
%TO.C,R27*%
X33309797Y40550000D03*
D15*
X32293797Y40550000D03*
%TD*%
D44*
%TO.C,485TX1*%
X34250000Y50200000D03*
%TD*%
D13*
%TO.C,R35*%
X35941027Y13458000D03*
D12*
X35941027Y12442000D03*
%TD*%
D49*
%TO.C,U10*%
X38355000Y38070000D03*
D50*
X37085000Y38070000D03*
X35815000Y38070000D03*
X34545000Y38070000D03*
X34545000Y32620000D03*
X35815000Y32620000D03*
X37085000Y32620000D03*
X38355000Y32620000D03*
%TD*%
D51*
%TO.C,FID4*%
X250000Y24500000D03*
%TD*%
D14*
%TO.C,C29*%
X11069000Y17242000D03*
D15*
X10053000Y17242000D03*
%TD*%
D51*
%TO.C,FID1*%
X250000Y80200000D03*
%TD*%
D52*
%TO.C,D12*%
X7800000Y6620000D03*
X7800000Y5980000D03*
%TD*%
D53*
%TO.C,J3*%
X12415000Y3735000D03*
X23845000Y3735000D03*
D54*
X12415000Y12625000D03*
D33*
X13685000Y10085000D03*
X14955000Y12625000D03*
X16225000Y10085000D03*
X17495000Y12625000D03*
X18765000Y10085000D03*
X20035000Y12625000D03*
X22575000Y12625000D03*
X23845000Y10085000D03*
D55*
X11495000Y-325000D03*
X14035000Y-325000D03*
X22215000Y-325000D03*
X24755000Y-325000D03*
D56*
X10375000Y6785000D03*
X25875000Y6785000D03*
%TD*%
D44*
%TO.C,485RX1*%
X38650000Y47100000D03*
%TD*%
D15*
%TO.C,R50*%
X33949797Y44208664D03*
D14*
X34965797Y44208664D03*
%TD*%
D12*
%TO.C,R62*%
X4950000Y6492000D03*
D13*
X4950000Y7508000D03*
%TD*%
D51*
%TO.C,FID3*%
X45410000Y80165000D03*
%TD*%
D44*
%TO.C,VBUS1*%
X650000Y28750000D03*
%TD*%
%TO.C,3.3V1*%
X29210000Y67090000D03*
%TD*%
%TO.C,485POE1*%
X34250000Y47100000D03*
%TD*%
D57*
%TO.C,J2*%
X510000Y2155000D03*
X6290000Y2155000D03*
D58*
X125534Y3601494D03*
X1012914Y3623959D03*
D59*
X2150000Y3630000D03*
X3150000Y3630000D03*
X3650000Y3630000D03*
X4650000Y3630000D03*
D58*
X6600000Y3630000D03*
X5800000Y3630000D03*
D59*
X5150000Y3630000D03*
X4150000Y3630000D03*
X2650000Y3630000D03*
X1650000Y3630000D03*
D60*
X-920000Y3055000D03*
D61*
X-920000Y-1125000D03*
X7720000Y-1125000D03*
D62*
X7720000Y3055000D03*
%TD*%
D63*
%TO.C,JP1*%
X36065000Y15558173D03*
X37635000Y15558173D03*
%TD*%
D64*
%TO.C,EXT2*%
X45276686Y47254733D03*
D65*
X45426686Y44714733D03*
X45450000Y42174733D03*
X45450000Y39634733D03*
X45450000Y37094733D03*
X45450000Y34554733D03*
X45450000Y32014733D03*
X45450000Y29474733D03*
X45450000Y26934733D03*
X45450000Y24394733D03*
%TD*%
D64*
%TO.C,EXT1*%
X45425000Y76155000D03*
D65*
X45425000Y73615000D03*
X45425000Y71075000D03*
X45425000Y68535000D03*
X45425000Y65995000D03*
X45425000Y63455000D03*
X45425000Y60915000D03*
X45425000Y58375000D03*
X45425000Y55835000D03*
X45425000Y53295000D03*
%TD*%
D66*
%TO.C,U4*%
X20594000Y21306000D03*
%TD*%
D33*
%TO.C,U9*%
X17800000Y51913000D03*
%TD*%
G36*
X24727121Y78181998D02*
G01*
X24773614Y78128342D01*
X24785000Y78076000D01*
X24785000Y73311500D01*
X24764998Y73243379D01*
X24711342Y73196886D01*
X24659000Y73185500D01*
X23895000Y73185500D01*
X23826879Y73205502D01*
X23780386Y73259158D01*
X23769000Y73311500D01*
X23769000Y78076000D01*
X23789002Y78144121D01*
X23842658Y78190614D01*
X23895000Y78202000D01*
X24659000Y78202000D01*
X24727121Y78181998D01*
G37*
M02*
