M48
; DRILL file KiCad 10.0.1 date 2026-05-05T20:46:27
; FORMAT={-:-/ absolute / metric / decimal}
; #@! TF.CreationDate,2026-05-05T20:46:27+02:00
; #@! TF.GenerationSoftware,Kicad,Pcbnew,10.0.1
; #@! TF.FileFunction,Plated,1,4,PTH
FMAT,2
METRIC
; #@! TA.AperFunction,Plated,PTH,ViaDrill
T1C0.300
; #@! TA.AperFunction,Plated,PTH,ViaDrill
T2C0.400
; #@! TA.AperFunction,Plated,PTH,ViaDrill
T3C0.500
; #@! TA.AperFunction,Plated,PTH,ComponentDrill
T4C0.500
; #@! TA.AperFunction,Plated,PTH,ViaDrill
T5C0.600
; #@! TA.AperFunction,Plated,PTH,ComponentDrill
T6C0.600
; #@! TA.AperFunction,Plated,PTH,ComponentDrill
T7C0.900
; #@! TA.AperFunction,Plated,PTH,ComponentDrill
T8C1.000
; #@! TA.AperFunction,Plated,PTH,ComponentDrill
T9C1.200
; #@! TA.AperFunction,Plated,PTH,ComponentDrill
T10C1.400
; #@! TA.AperFunction,Plated,PTH,ComponentDrill
T11C1.700
%
G90
G05
T1
X-0.55Y16.85
X0.1Y68.425
X1.182Y69.566
X3.957Y58.875
X7.005Y75.916
X7.05Y38.705
X7.38Y59.818
X7.65Y14.15
X8.45Y16.35
X9.85Y14.65
X10.409Y41.982
X10.45Y14.05
X10.65Y-2.35
X11.275Y55.575
X11.7Y57.91
X12.1Y55.65
X13.85Y55.635
X14.038Y24.75
X14.17Y23.852
X16.4Y1.1
X16.45Y64.95
X24.404Y63.597
X27.06Y66.772
X28.65Y39.543
T2
X-1.55Y7.3
X-0.35Y49.45
X0.15Y15.9
X0.75Y0.75
X0.9Y5.85
X0.965Y66.657
X1.0Y20.89
X1.1Y48.4
X1.29Y36.77
X1.29Y34.23
X1.29Y31.69
X1.35Y46.5
X1.417Y75.027
X1.798Y62.432
X1.85Y27.9
X2.15Y0.3
X2.179Y74.138
X2.484Y60.752
X2.65Y14.75
X3.068Y67.026
X3.322Y24.227
X3.33Y5.93
X3.395Y18.204
X3.703Y72.233
X3.957Y73.249
X3.957Y65.883
X3.957Y64.867
X4.084Y62.327
X4.2Y18.75
X4.25Y5.7
X4.465Y22.576
X4.719Y32.66
X5.227Y31.847
X5.735Y32.682
X5.735Y21.941
X6.3Y0.85
X6.497Y22.576
X6.751Y32.736
X6.8Y5.2
X7.005Y73.884
X7.005Y71.598
X7.079Y66.893
X7.132Y68.677
X7.384Y66.01
X7.633Y56.308
X7.767Y44.547
X7.849Y73.291
X7.856Y74.537
X8.016Y67.265
X8.037Y20.925
X8.257Y68.568
X8.275Y69.566
X8.45Y0.75
X8.665Y56.894
X9.022Y67.138
X9.05Y12.15
X9.164Y30.45
X9.25Y77.567
X9.275Y3.9
X9.577Y56.649
X9.799Y17.877
X9.825Y22.75
X9.85Y74.829
X10.1Y54.25
X10.226Y66.131
X10.307Y21.3
X10.463Y64.586
X10.494Y56.74
X10.561Y52.325
X10.688Y63.117
X11.05Y53.425
X11.072Y51.372
X11.175Y67.039
X11.323Y21.052
X11.8Y66.349
X11.9Y54.5
X12.085Y21.687
X12.212Y16.302
X12.339Y20.798
X13.613Y56.981
X13.863Y33.879
X13.99Y38.197
X14.117Y62.962
X14.752Y22.322
X14.879Y38.197
X14.879Y33.879
X15.668Y63.084
X15.768Y38.197
X15.768Y22.195
X15.895Y33.879
X15.895Y16.353
X16.149Y46.071
X16.6Y2.75
X17.493Y16.709
X17.621Y44.921
X18.206Y18.995
X18.445Y16.681
X19.07Y45.182
X19.34Y67.082
X19.578Y17.369
X19.857Y25.065
X20.05Y57.95
X20.455Y60.688
X20.6Y69.952
X20.6Y17.33
X20.721Y63.47
X20.721Y62.454
X20.975Y67.082
X21.102Y75.027
X21.102Y72.487
X21.169Y73.824
X21.229Y16.353
X21.483Y34.895
X22.245Y16.988
X22.931Y35.505
X23.1Y8.15
X23.36Y18.9
X24.023Y62.2
X24.023Y61.184
X24.023Y21.814
X24.051Y68.014
X24.079Y68.917
X24.15Y71.852
X24.404Y48.865
X24.658Y69.693
X24.792Y65.248
X24.912Y66.456
X25.039Y20.036
X25.293Y58.644
X25.386Y64.141
X25.476Y68.042
X25.674Y60.041
X25.801Y62.037
X25.801Y19.274
X26.887Y42.512
X27.098Y65.7
X27.445Y36.913
X27.618Y43.978
X28.25Y5.45
X28.65Y33.15
X32.1Y44.4
X32.55Y58.75
X33.8Y29.65
X34.25Y45.4
X34.85Y25.45
X36.75Y29.4
X36.9Y20.25
X37.62Y28.44
X37.85Y17.35
X41.45Y16.0
X43.62Y73.64
X43.95Y32.05
T3
X3.703Y32.736
X15.641Y31.085
X17.673Y47.722
T4
X11.09Y71.742
X11.09Y70.342
X11.79Y72.442
X11.79Y69.642
X13.19Y72.442
X13.19Y69.642
X13.89Y71.742
X13.89Y70.342
X19.294Y21.806
X19.294Y20.806
X20.094Y22.606
X20.094Y20.006
X21.094Y22.606
X21.094Y20.006
X21.894Y21.806
X21.894Y20.806
T5
X1.29Y22.322
X3.656Y76.064
X3.83Y78.837
X3.83Y77.611
X4.719Y46.96
X5.608Y20.925
X6.43Y48.81
X7.005Y77.572
X7.14Y78.91
X7.513Y62.454
X8.91Y28.799
X9.545Y16.353
X10.815Y74.392
X10.815Y39.086
X11.831Y39.086
X12.085Y78.887
X12.085Y74.392
X12.339Y25.116
X12.339Y23.846
X12.339Y22.83
X13.355Y74.392
X14.617Y78.88
X14.625Y74.392
X15.006Y55.85
X15.133Y39.543
X16.022Y55.85
X16.149Y74.265
X16.149Y72.995
X16.149Y71.725
X16.149Y70.455
X17.165Y78.897
X17.419Y74.265
X17.419Y72.995
X17.419Y71.725
X17.419Y70.455
X18.689Y72.995
X18.689Y71.725
X18.689Y70.455
X19.07Y78.897
X20.34Y53.564
X20.34Y52.548
X20.34Y51.532
X20.467Y34.768
X20.594Y47.976
X20.594Y46.96
X20.934Y27.11
X20.974Y78.87
X21.991Y44.801
X21.991Y43.785
X21.991Y42.769
X23.261Y29.942
X23.261Y28.926
X24.15Y78.837
X25.9Y77.0
X43.67Y71.09
T7
X2.186Y10.529
X2.188Y8.499
X5.6Y36.85
X5.6Y34.35
X12.415Y12.625
X13.685Y10.085
X14.955Y12.625
X16.225Y10.085
X17.495Y12.625
X18.765Y10.085
X20.035Y12.625
X20.741Y37.816
X22.575Y12.625
X23.241Y37.816
X23.845Y10.085
T8
X11.495Y-0.325
X14.035Y-0.325
X22.215Y-0.325
X24.755Y-0.325
X45.277Y47.255
X45.425Y76.155
X45.425Y73.615
X45.425Y71.075
X45.425Y68.535
X45.425Y65.995
X45.425Y63.455
X45.425Y60.915
X45.425Y58.375
X45.425Y55.835
X45.425Y53.295
X45.427Y44.715
X45.45Y42.175
X45.45Y39.635
X45.45Y37.095
X45.45Y34.555
X45.45Y32.015
X45.45Y29.475
X45.45Y26.935
X45.45Y24.395
T9
X12.49Y71.042
X14.879Y36.165
X17.8Y51.913
X20.594Y21.306
T10
X32.7Y7.25
X37.7Y7.25
X42.7Y7.25
T11
X10.375Y6.785
X25.875Y6.785
T6
G00X-0.92Y3.605
M15
G01X-0.92Y2.505
M16
G05
G00X-0.92Y-0.725
M15
G01X-0.92Y-1.525
M16
G05
G00X7.72Y3.605
M15
G01X7.72Y2.505
M16
G05
G00X7.72Y-0.725
M15
G01X7.72Y-1.525
M16
G05
M30
